<svg width="25" height="20" viewBox="0 0 25 20" fill="none" xmlns="http://www.w3.org/2000/svg">
<path fill-rule="evenodd" clip-rule="evenodd" d="M6.32117 1.18698C10.3003 0.841077 14.302 0.841077 18.2811 1.18698L20.1891 1.35377C21.0762 1.431 21.9115 1.80456 22.5604 2.41428C23.2093 3.024 23.6341 3.83439 23.7664 4.71494C24.3394 8.52643 24.3394 12.4022 23.7664 16.2137C23.7158 16.5473 23.6249 16.8669 23.4985 17.1664C23.4151 17.3648 23.1573 17.3951 23.0107 17.2359L17.4244 11.0898C17.3009 10.9539 17.1405 10.8569 16.9628 10.8104C16.7852 10.764 16.5978 10.7702 16.4236 10.8282L13.2255 11.8947L8.58679 6.67604C8.50099 6.5795 8.39636 6.50152 8.27933 6.44688C8.1623 6.39225 8.03533 6.36211 7.90623 6.35833C7.77713 6.35454 7.64861 6.37718 7.52858 6.42486C7.40855 6.47255 7.29952 6.54426 7.20821 6.6356L0.998898 12.8449C0.956714 12.8883 0.902796 12.9184 0.843754 12.9315C0.784711 12.9447 0.72311 12.9404 0.666502 12.919C0.609895 12.8977 0.56074 12.8603 0.525065 12.8115C0.48939 12.7626 0.468745 12.7044 0.46566 12.644C0.316239 9.9949 0.43988 7.33746 0.83463 4.71367C0.966909 3.83313 1.39172 3.02274 2.04063 2.41302C2.68955 1.8033 3.5248 1.42974 4.41187 1.35251L6.32117 1.18698ZM14.8277 6.67351C14.8277 6.17082 15.0274 5.68872 15.3828 5.33326C15.7383 4.97781 16.2204 4.77812 16.7231 4.77812C17.2258 4.77812 17.7079 4.97781 18.0633 5.33326C18.4188 5.68872 18.6185 6.17082 18.6185 6.67351C18.6185 7.1762 18.4188 7.6583 18.0633 8.01376C17.7079 8.36921 17.2258 8.56891 16.7231 8.56891C16.2204 8.56891 15.7383 8.36921 15.3828 8.01376C15.0274 7.6583 14.8277 7.1762 14.8277 6.67351Z" fill="#C7C7C7"/>
<path d="M0.879078 15.6451C0.844871 15.6795 0.819088 15.7213 0.803744 15.7674C0.788399 15.8134 0.78391 15.8624 0.790626 15.9104L0.834852 16.2137C0.967131 17.0942 1.39194 17.9046 2.04086 18.5143C2.68977 19.1241 3.52503 19.4976 4.41209 19.5748L6.32013 19.7404C10.3005 20.0866 14.301 20.0866 18.2813 19.7404L20.1894 19.5748C20.7126 19.5296 21.2217 19.3805 21.6867 19.1364C21.8598 19.0467 21.8889 18.818 21.7575 18.6739L16.5767 12.9751C16.5356 12.9293 16.482 12.8966 16.4225 12.8809C16.363 12.8652 16.3003 12.8672 16.2419 12.8866L13.232 13.8899C13.056 13.9487 12.8667 13.9545 12.6874 13.9067C12.5082 13.8588 12.3469 13.7594 12.2236 13.6208L8.0601 8.93663C8.03143 8.90444 7.99649 8.87846 7.95741 8.86028C7.91832 8.8421 7.87594 8.83211 7.83285 8.83093C7.78977 8.82975 7.7469 8.83739 7.70688 8.8534C7.66686 8.8694 7.63054 8.89343 7.60015 8.92399L0.879078 15.6451Z" fill="#C7C7C7"/>
</svg>
