<svg width="56" height="56" viewBox="0 0 56 56" fill="none" xmlns="http://www.w3.org/2000/svg">
<path d="M37.2892 43.1492L40.4373 44.9807L43.9534 42.9565L40.7927 41.125L37.2892 43.1492Z" fill="white"/>
<path d="M40.4323 53.1199L43.9484 51.0882V42.969L40.4323 44.9932V53.1199Z" fill="#50DDB6"/>
<path d="M40.4524 44.9857L37.2967 43.1492V51.2709L40.4248 53.0949" fill="#00B386"/>
<path d="M31.5 31.7271L40.0184 36.6828L49.5322 31.2058L40.98 26.25L31.5 31.7271Z" fill="white"/>
<path d="M40.0049 46.4562L49.5187 40.9589V31.2396L40.0049 36.7167V46.4562Z" fill="#50DDB6"/>
<path d="M40.059 36.6964L31.5203 31.7271V41.4531L39.9846 46.3885" fill="#00B386"/>
<path d="M37.2892 15.1492L40.4373 16.9807L43.9534 14.9565L40.7927 13.125L37.2892 15.1492Z" fill="white"/>
<path d="M40.4323 33.8699L43.9484 31.8382V14.969L40.4323 16.9932V33.8699Z" fill="#50DDB6"/>
<path d="M40.4524 16.9857L37.2967 15.1492V32.0209L40.4248 33.8449" fill="#00B386"/>
<path d="M12.7892 35.2742L15.9373 37.1057L19.4534 35.0815L16.2927 33.25L12.7892 35.2742Z" fill="white"/>
<path d="M15.9323 45.2449L19.4484 43.2132V35.094L15.9323 37.1182V45.2449Z" fill="#50DDB6"/>
<path d="M15.9524 37.1107L12.7967 35.2742V43.3959L15.9248 45.2199" fill="#00B386"/>
<path d="M7 13.3521L15.5184 18.3078L25.0322 12.8308L16.48 7.875L7 13.3521Z" fill="white"/>
<path d="M15.5049 40.3312L25.0187 34.8339V12.8646L15.5049 18.3417V40.3312Z" fill="#50DDB6"/>
<path d="M15.559 18.3214L7.02031 13.3521V35.3281L15.4846 40.2635" fill="#00B386"/>
<path d="M12.7892 5.52417L15.9373 7.35567L19.4534 5.33151L16.2927 3.5L12.7892 5.52417Z" fill="white"/>
<path d="M15.9323 15.4949L19.4484 13.4632V5.34402L15.9323 7.36818V15.4949Z" fill="#50DDB6"/>
<path d="M15.9524 7.36068L12.7967 5.52417V13.6459L15.9248 15.4699" fill="#00B386"/>
</svg>
